<svg width="512" height="512" viewBox="0 0 512 512" fill="none" xmlns="http://www.w3.org/2000/svg">
  <!-- Background -->
  <rect width="512" height="512" fill="#b1201e"/>
  
  <g stroke="#f5ecd7" stroke-width="14" stroke-linejoin="round" stroke-linecap="round">
    <!-- Top-Left Face -->
    <polygon points="100,166 256,76 195,221" fill="#ebdbb8" />
    
    <!-- Top Face -->
    <polygon points="256,76 317,221 195,221" fill="#e7d5b2" />
    
    <!-- Top-Right Face -->
    <polygon points="256,76 412,166 317,221" fill="#ebdaba" />
    
    <!-- Left Face -->
    <polygon points="100,346 100,166 195,221" fill="#e3d1ac" />
    
    <!-- Right Face -->
    <polygon points="412,166 412,346 317,221" fill="#dfccaa" />
    
    <!-- Bottom-Left Face -->
    <polygon points="195,221 100,346 256,326" fill="#dbc7a2" />
    
    <!-- Bottom-Right Face -->
    <polygon points="317,221 256,326 412,346" fill="#d3bd95" />
    
    <!-- Bottom-Left-Outer Face -->
    <polygon points="100,346 256,436 256,326" fill="#ceb68e" />
    
    <!-- Bottom-Right-Outer Face -->
    <polygon points="412,346 256,326 256,436" fill="#c8b087" />
    
    <!-- Center Face (d20 text face) -->
    <polygon points="195,221 317,221 256,326" fill="#ebdcb9" />
  </g>
  
  <!-- "20" Text -->
  <text x="256" y="260" font-family="Cinzel, Georgia, serif" font-size="54" font-weight="700" fill="#1a1410" text-anchor="middle" dominant-baseline="central">20</text>
</svg>
