<svg xmlns="http://www.w3.org/2000/svg" viewBox="0 0 1200 720" role="img" aria-label="App screens: Plan, Prep, Run">
  <defs>
    <linearGradient id="parch" x1="0" y1="0" x2="0" y2="1">
      <stop offset="0%" stop-color="#f3ead5"/>
      <stop offset="100%" stop-color="#ebdfbe"/>
    </linearGradient>
    <linearGradient id="cardGold" x1="0" y1="0" x2="0" y2="1">
      <stop offset="0%" stop-color="#c9a13d"/>
      <stop offset="100%" stop-color="#a8821e"/>
    </linearGradient>
    <filter id="winShadow" x="-10%" y="-10%" width="120%" height="125%">
      <feDropShadow dx="0" dy="10" stdDeviation="14" flood-color="#000" flood-opacity="0.35"/>
    </filter>
  </defs>

  <rect width="1200" height="720" fill="#1a1410"/>

  <!-- ===== Screen 1: PLAN ===== -->
  <g transform="translate(40,40)" filter="url(#winShadow)">
    <rect x="0" y="0" width="360" height="640" rx="12" fill="url(#parch)" stroke="#3a2d1f" stroke-width="1"/>
    <!-- window chrome -->
    <rect x="0" y="0" width="360" height="32" rx="12" fill="#e0d2ac"/>
    <rect x="0" y="20" width="360" height="12" fill="#e0d2ac"/>
    <circle cx="16" cy="16" r="5" fill="#ed6a5e"/>
    <circle cx="34" cy="16" r="5" fill="#f4bf4f"/>
    <circle cx="52" cy="16" r="5" fill="#61c554"/>

    <!-- Title -->
    <text x="20" y="68" font-family="Georgia, serif" font-size="11" fill="#a8821e" letter-spacing="3">GAMEMASTER ASSISTANT</text>
    <text x="20" y="100" font-family="Georgia, serif" font-size="22" font-weight="700" fill="#5a1a1a">Whispers of</text>
    <text x="20" y="124" font-family="Georgia, serif" font-size="22" font-weight="700" fill="#5a1a1a">Lost Essence</text>

    <!-- Mode tabs -->
    <g font-family="Georgia, serif" font-size="11" letter-spacing="2">
      <rect x="20"  y="148" width="68" height="26" rx="4" fill="#5a1a1a"/>
      <text x="54"  y="165" text-anchor="middle" fill="#f3ead5">PLAN</text>
      <rect x="94"  y="148" width="68" height="26" rx="4" fill="none" stroke="#a8821e"/>
      <text x="128" y="165" text-anchor="middle" fill="#5a1a1a">PREP</text>
      <rect x="168" y="148" width="80" height="26" rx="4" fill="none" stroke="#a8821e"/>
      <text x="208" y="165" text-anchor="middle" fill="#5a1a1a">ORGANIZE</text>
      <rect x="254" y="148" width="68" height="26" rx="4" fill="none" stroke="#a8821e"/>
      <text x="288" y="165" text-anchor="middle" fill="#5a1a1a">RUN</text>
    </g>

    <!-- Subtab -->
    <rect x="20" y="190" width="74" height="22" rx="3" fill="#7a1f1f"/>
    <text x="57" y="205" text-anchor="middle" font-family="Georgia, serif" font-size="10" fill="#f3ead5" letter-spacing="2">PREMISE</text>
    <text x="104" y="205" font-family="Georgia, serif" font-size="10" fill="#7a5d2a" letter-spacing="2">WORLDBUILD</text>
    <text x="186" y="205" font-family="Georgia, serif" font-size="10" fill="#7a5d2a" letter-spacing="2">PARTY</text>

    <!-- Step card -->
    <rect x="20" y="232" width="320" height="68" rx="6" fill="#e6d5ad" stroke="#a8821e" stroke-width="0.5"/>
    <text x="38" y="262" font-family="Georgia, serif" font-size="28" font-weight="700" fill="#5a1a1a">0</text>
    <text x="70" y="258" font-family="Georgia, serif" font-size="14" font-weight="700" fill="#3a2d1f">Givens &amp; Pitch</text>
    <rect x="172" y="248" width="50" height="14" rx="2" fill="#5a1a1a"/>
    <text x="197" y="258" text-anchor="middle" font-family="Georgia, serif" font-size="8" fill="#f3ead5" letter-spacing="1">DM SOLO</text>
    <rect x="228" y="248" width="32" height="14" rx="2" fill="none" stroke="#a8821e"/>
    <text x="244" y="258" text-anchor="middle" font-family="Georgia, serif" font-size="8" fill="#7a5d2a">CCD</text>
    <text x="70" y="280" font-family="Georgia, serif" font-size="11" font-style="italic" fill="#7a5d2a">Decide what's non-negotiable</text>

    <!-- Quote -->
    <line x1="20" y1="318" x2="20" y2="362" stroke="#a8821e" stroke-width="2"/>
    <text x="34" y="334" font-family="Georgia, serif" font-size="11" font-style="italic" fill="#3a2d1f">Givens are things your group</text>
    <text x="34" y="348" font-family="Georgia, serif" font-size="11" font-style="italic" fill="#3a2d1f">agrees will feature regardless</text>
    <text x="34" y="362" font-family="Georgia, serif" font-size="10" fill="#7a5d2a">— CCD CH. 1</text>

    <!-- Items -->
    <g font-family="Georgia, serif" font-size="12">
      <rect x="20" y="380" width="320" height="42" rx="4" fill="#d4b76a" stroke="#a8821e" stroke-width="0.5"/>
      <rect x="34" y="394" width="14" height="14" rx="2" fill="#5a1a1a"/>
      <text x="36" y="406" font-family="Arial" font-size="13" fill="#f3ead5">✓</text>
      <text x="58" y="406" font-weight="700" fill="#3a2d1f">World Facts</text>
      <rect x="296" y="396" width="32" height="14" rx="2" fill="none" stroke="#7a5d2a"/>
      <text x="312" y="406" text-anchor="middle" font-size="9" fill="#7a5d2a">CCD</text>

      <rect x="20" y="430" width="320" height="42" rx="4" fill="#d4b76a" stroke="#a8821e" stroke-width="0.5"/>
      <rect x="34" y="444" width="14" height="14" rx="2" fill="#5a1a1a"/>
      <text x="36" y="456" font-family="Arial" font-size="13" fill="#f3ead5">✓</text>
      <text x="58" y="456" font-weight="700" fill="#3a2d1f">Factions, NPCs &amp; Locations</text>
      <rect x="296" y="446" width="32" height="14" rx="2" fill="none" stroke="#7a5d2a"/>
      <text x="312" y="456" text-anchor="middle" font-size="9" fill="#7a5d2a">CCD</text>

      <rect x="20" y="480" width="320" height="42" rx="4" fill="#d4b76a" stroke="#a8821e" stroke-width="0.5"/>
      <rect x="34" y="494" width="14" height="14" rx="2" fill="#5a1a1a"/>
      <text x="36" y="506" font-family="Arial" font-size="13" fill="#f3ead5">✓</text>
      <text x="58" y="506" font-weight="700" fill="#3a2d1f">Mechanics &amp; System</text>
      <rect x="296" y="496" width="32" height="14" rx="2" fill="none" stroke="#7a5d2a"/>
      <text x="312" y="506" text-anchor="middle" font-size="9" fill="#7a5d2a">CCD</text>

      <rect x="20" y="530" width="320" height="42" rx="4" fill="#d4b76a" stroke="#a8821e" stroke-width="0.5"/>
      <rect x="34" y="544" width="14" height="14" rx="2" fill="#5a1a1a"/>
      <text x="36" y="556" font-family="Arial" font-size="13" fill="#f3ead5">✓</text>
      <text x="58" y="556" font-weight="700" fill="#3a2d1f">Content Lines (Hard Nos)</text>
      <rect x="296" y="546" width="32" height="14" rx="2" fill="none" stroke="#7a5d2a"/>
      <text x="312" y="556" text-anchor="middle" font-size="9" fill="#7a5d2a">CCD</text>
    </g>

    <!-- Synced badge -->
    <rect x="270" y="600" width="74" height="22" rx="11" fill="#e6d5ad" stroke="#1f4a2a"/>
    <text x="307" y="614" text-anchor="middle" font-family="Georgia, serif" font-size="10" fill="#1f4a2a" letter-spacing="1">○ SYNCED</text>

    <!-- Caption -->
    <text x="180" y="630" text-anchor="middle" font-family="Georgia, serif" font-size="12" font-style="italic" fill="#7a5d2a">Plan · world-level prep</text>
  </g>

  <!-- ===== Screen 2: PREP ===== -->
  <g transform="translate(420,40)" filter="url(#winShadow)">
    <rect x="0" y="0" width="360" height="640" rx="12" fill="url(#parch)" stroke="#3a2d1f" stroke-width="1"/>
    <rect x="0" y="0" width="360" height="32" rx="12" fill="#e0d2ac"/>
    <rect x="0" y="20" width="360" height="12" fill="#e0d2ac"/>
    <circle cx="16" cy="16" r="5" fill="#ed6a5e"/>
    <circle cx="34" cy="16" r="5" fill="#f4bf4f"/>
    <circle cx="52" cy="16" r="5" fill="#61c554"/>

    <text x="20" y="68" font-family="Georgia, serif" font-size="11" fill="#a8821e" letter-spacing="3">PREP NEXT SESSION</text>
    <rect x="220" y="56" width="120" height="22" rx="11" fill="none" stroke="#a8821e"/>
    <text x="280" y="71" text-anchor="middle" font-family="Georgia, serif" font-size="10" fill="#5a1a1a" letter-spacing="1">17/20 STEPS DONE</text>

    <!-- Tabs -->
    <g font-family="Georgia, serif" font-size="11" letter-spacing="2">
      <rect x="20" y="100" width="68" height="26" rx="4" fill="none" stroke="#a8821e"/>
      <text x="54" y="117" text-anchor="middle" fill="#5a1a1a">PLAN</text>
      <rect x="94" y="100" width="68" height="26" rx="4" fill="#5a1a1a"/>
      <text x="128" y="117" text-anchor="middle" fill="#f3ead5">PREP</text>
      <rect x="168" y="100" width="80" height="26" rx="4" fill="none" stroke="#a8821e"/>
      <text x="208" y="117" text-anchor="middle" fill="#5a1a1a">ORGANIZE</text>
      <rect x="254" y="100" width="68" height="26" rx="4" fill="none" stroke="#a8821e"/>
      <text x="288" y="117" text-anchor="middle" fill="#5a1a1a">RUN</text>
    </g>

    <!-- Subtab -->
    <rect x="20" y="140" width="56" height="22" rx="3" fill="#7a1f1f"/>
    <text x="48" y="155" text-anchor="middle" font-family="Georgia, serif" font-size="10" fill="#f3ead5" letter-spacing="2">FLOW</text>
    <text x="92" y="155" font-family="Georgia, serif" font-size="10" fill="#7a5d2a" letter-spacing="2">WIZARD</text>
    <text x="160" y="155" font-family="Georgia, serif" font-size="10" fill="#7a5d2a" letter-spacing="2">CLOCKS</text>
    <text x="220" y="155" font-family="Georgia, serif" font-size="10" fill="#7a5d2a" letter-spacing="2">ARC</text>
    <text x="260" y="155" font-family="Georgia, serif" font-size="10" fill="#7a5d2a" letter-spacing="2">ENDING</text>

    <!-- Next up card -->
    <rect x="20" y="180" width="320" height="48" rx="6" fill="#e6d5ad" stroke="#a8821e" stroke-width="0.5"/>
    <text x="34" y="200" font-family="Georgia, serif" font-size="9" fill="#7a5d2a" letter-spacing="2">NEXT UP</text>
    <text x="34" y="220" font-family="Georgia, serif" font-size="13" font-weight="700" fill="#3a2d1f">Fantastic Locations</text>
    <text x="180" y="220" font-family="Georgia, serif" font-size="10" font-style="italic" fill="#7a5d2a">1 of 4 — 3 to go</text>
    <rect x="270" y="196" width="60" height="20" rx="3" fill="none" stroke="#5a1a1a"/>
    <text x="300" y="209" text-anchor="middle" font-family="Georgia, serif" font-size="9" fill="#5a1a1a" letter-spacing="1">JUMP TO</text>

    <!-- Step 3 card -->
    <rect x="20" y="244" width="320" height="60" rx="6" fill="#e6d5ad" stroke="#a8821e" stroke-width="0.5"/>
    <text x="38" y="280" font-family="Georgia, serif" font-size="28" font-weight="700" fill="#5a1a1a">3</text>
    <text x="70" y="270" font-family="Georgia, serif" font-size="14" font-weight="700" fill="#3a2d1f">Per-Session Prep</text>
    <rect x="190" y="260" width="54" height="14" rx="2" fill="#5a1a1a"/>
    <text x="217" y="270" text-anchor="middle" font-family="Georgia, serif" font-size="8" fill="#f3ead5" letter-spacing="1">DM SOLO</text>
    <rect x="250" y="260" width="56" height="14" rx="2" fill="none" stroke="#1f4a2a"/>
    <text x="278" y="270" text-anchor="middle" font-family="Georgia, serif" font-size="8" fill="#1f4a2a">LAZY DM</text>
    <text x="70" y="290" font-family="Georgia, serif" font-size="11" font-style="italic" fill="#7a5d2a">Lazy DM 8-Step Checklist</text>

    <!-- Quote -->
    <line x1="20" y1="320" x2="20" y2="350" stroke="#a8821e" stroke-width="2"/>
    <text x="34" y="334" font-family="Georgia, serif" font-size="12" font-style="italic" fill="#3a2d1f">Prep as little as you can.</text>
    <text x="34" y="350" font-family="Georgia, serif" font-size="10" fill="#7a5d2a">— LAZY DM</text>

    <!-- 8-step items -->
    <g font-family="Georgia, serif" font-size="11" fill="#3a2d1f">
      <rect x="20" y="368" width="320" height="32" rx="4" fill="#d4b76a"/>
      <rect x="32" y="378" width="12" height="12" rx="2" fill="none" stroke="#5a1a1a" stroke-width="1.5"/>
      <text x="54" y="389">1 · Review the Characters</text>
      <rect x="290" y="378" width="38" height="14" rx="2" fill="none" stroke="#1f4a2a"/>
      <text x="309" y="389" font-size="9" fill="#1f4a2a">LAZY DM</text>

      <rect x="20" y="406" width="320" height="32" rx="4" fill="#d4b76a"/>
      <rect x="32" y="416" width="12" height="12" rx="2" fill="none" stroke="#5a1a1a" stroke-width="1.5"/>
      <text x="54" y="427">2 · Create a Strong Start</text>
      <rect x="290" y="416" width="38" height="14" rx="2" fill="none" stroke="#1f4a2a"/>
      <text x="309" y="427" font-size="9" fill="#1f4a2a">LAZY DM</text>

      <rect x="20" y="444" width="320" height="32" rx="4" fill="#d4b76a"/>
      <rect x="32" y="454" width="12" height="12" rx="2" fill="#5a1a1a"/>
      <text x="34" y="465" font-family="Arial" font-size="11" fill="#f3ead5">✓</text>
      <text x="54" y="465">3 · Outline Potential Scenes</text>
      <rect x="290" y="454" width="38" height="14" rx="2" fill="none" stroke="#1f4a2a"/>
      <text x="309" y="465" font-size="9" fill="#1f4a2a">LAZY DM</text>

      <rect x="20" y="482" width="320" height="32" rx="4" fill="#d4b76a"/>
      <rect x="32" y="492" width="12" height="12" rx="2" fill="#5a1a1a"/>
      <text x="34" y="503" font-family="Arial" font-size="11" fill="#f3ead5">✓</text>
      <text x="54" y="503">4 · Define Secrets &amp; Clues</text>
      <rect x="290" y="492" width="38" height="14" rx="2" fill="none" stroke="#1f4a2a"/>
      <text x="309" y="503" font-size="9" fill="#1f4a2a">LAZY DM</text>

      <rect x="20" y="520" width="320" height="32" rx="4" fill="#d4b76a"/>
      <rect x="32" y="530" width="12" height="12" rx="2" fill="none" stroke="#5a1a1a" stroke-width="1.5"/>
      <text x="54" y="541">5 · Develop Fantastic Locations</text>
      <rect x="290" y="530" width="38" height="14" rx="2" fill="none" stroke="#1f4a2a"/>
      <text x="309" y="541" font-size="9" fill="#1f4a2a">LAZY DM</text>
    </g>

    <!-- progress -->
    <rect x="20" y="568" width="320" height="6" rx="3" fill="#d4b76a"/>
    <rect x="20" y="568" width="200" height="6" rx="3" fill="#5a1a1a"/>
    <text x="180" y="592" text-anchor="middle" font-family="Georgia, serif" font-size="10" fill="#7a5d2a">progress: 5 / 8 steps</text>

    <text x="180" y="630" text-anchor="middle" font-family="Georgia, serif" font-size="12" font-style="italic" fill="#7a5d2a">Prep · per-session checklist</text>
  </g>

  <!-- ===== Screen 3: RUN ===== -->
  <g transform="translate(800,40)" filter="url(#winShadow)">
    <rect x="0" y="0" width="360" height="640" rx="12" fill="url(#parch)" stroke="#3a2d1f" stroke-width="1"/>
    <rect x="0" y="0" width="360" height="32" rx="12" fill="#e0d2ac"/>
    <rect x="0" y="20" width="360" height="12" fill="#e0d2ac"/>
    <circle cx="16" cy="16" r="5" fill="#ed6a5e"/>
    <circle cx="34" cy="16" r="5" fill="#f4bf4f"/>
    <circle cx="52" cy="16" r="5" fill="#61c554"/>

    <text x="20" y="68" font-family="Georgia, serif" font-size="11" fill="#a8821e" letter-spacing="3">RUN SESSION</text>

    <!-- Tabs -->
    <g font-family="Georgia, serif" font-size="11" letter-spacing="2">
      <rect x="20" y="100" width="68" height="26" rx="4" fill="none" stroke="#a8821e"/>
      <text x="54" y="117" text-anchor="middle" fill="#5a1a1a">PLAN</text>
      <rect x="94" y="100" width="68" height="26" rx="4" fill="none" stroke="#a8821e"/>
      <text x="128" y="117" text-anchor="middle" fill="#5a1a1a">PREP</text>
      <rect x="168" y="100" width="80" height="26" rx="4" fill="none" stroke="#a8821e"/>
      <text x="208" y="117" text-anchor="middle" fill="#5a1a1a">ORGANIZE</text>
      <rect x="254" y="100" width="68" height="26" rx="4" fill="#5a1a1a"/>
      <text x="288" y="117" text-anchor="middle" fill="#f3ead5">RUN</text>
    </g>

    <!-- Subtab -->
    <rect x="20" y="140" width="74" height="22" rx="3" fill="#7a1f1f"/>
    <text x="57" y="155" text-anchor="middle" font-family="Georgia, serif" font-size="10" fill="#f3ead5" letter-spacing="2">SESSION</text>
    <text x="104" y="155" font-family="Georgia, serif" font-size="10" fill="#7a5d2a" letter-spacing="2">MAPS</text>
    <text x="146" y="155" font-family="Georgia, serif" font-size="10" fill="#7a5d2a" letter-spacing="2">DICE</text>
    <text x="186" y="155" font-family="Georgia, serif" font-size="10" fill="#7a5d2a" letter-spacing="2">SPELLS</text>
    <text x="240" y="155" font-family="Georgia, serif" font-size="10" fill="#7a5d2a" letter-spacing="2">CHASE</text>
    <text x="290" y="155" font-family="Georgia, serif" font-size="10" fill="#7a5d2a" letter-spacing="2">DM REF</text>

    <!-- Session banner -->
    <rect x="20" y="180" width="320" height="42" rx="6" fill="#f3d8c4" stroke="#7a1f1f" stroke-width="1"/>
    <text x="34" y="207" font-family="Georgia, serif" font-size="13" font-weight="700" fill="#7a1f1f">⚔ Session 2</text>
    <text x="118" y="207" font-family="Georgia, serif" font-size="10" font-style="italic" fill="#7a5d2a">started 40h ago</text>
    <rect x="252" y="190" width="78" height="22" rx="3" fill="none" stroke="#7a1f1f"/>
    <text x="291" y="205" text-anchor="middle" font-family="Georgia, serif" font-size="10" fill="#7a1f1f" letter-spacing="1">END SESSION</text>

    <!-- Scenes header -->
    <rect x="20" y="240" width="320" height="36" rx="6" fill="#e0d2ac" stroke="#a8821e" stroke-width="0.5"/>
    <text x="34" y="262" font-family="Georgia, serif" font-size="13" font-weight="700" fill="#3a2d1f">▤ Scenes</text>
    <text x="316" y="262" font-family="Georgia, serif" font-size="13" fill="#7a5d2a">4 ▾</text>

    <!-- Scene 1 -->
    <rect x="20" y="284" width="320" height="74" rx="6" fill="#e6d5ad" stroke="#a8821e" stroke-width="0.5"/>
    <text x="34" y="304" font-family="Georgia, serif" font-size="11" fill="#3a2d1f">A knight leading a party of</text>
    <text x="34" y="320" font-family="Georgia, serif" font-size="11" fill="#3a2d1f">aristocrats through the forest</text>
    <text x="34" y="336" font-family="Georgia, serif" font-size="11" fill="#3a2d1f">disappeared. Aristocrats found dead.</text>
    <rect x="240" y="345" width="86" height="20" rx="3" fill="none" stroke="#5a1a1a"/>
    <text x="283" y="358" text-anchor="middle" font-family="Georgia, serif" font-size="9" fill="#5a1a1a" letter-spacing="1">MARK USED</text>

    <!-- Scene 2 -->
    <rect x="20" y="370" width="320" height="62" rx="6" fill="#e6d5ad" stroke="#a8821e" stroke-width="0.5"/>
    <text x="34" y="390" font-family="Georgia, serif" font-size="11" fill="#3a2d1f">Wild magic erupts inside the</text>
    <text x="34" y="406" font-family="Georgia, serif" font-size="11" fill="#3a2d1f">mayoral manor due to the magical</text>
    <text x="34" y="422" font-family="Georgia, serif" font-size="11" fill="#3a2d1f">hot spot.</text>
    <rect x="240" y="395" width="86" height="20" rx="3" fill="none" stroke="#5a1a1a"/>
    <text x="283" y="408" text-anchor="middle" font-family="Georgia, serif" font-size="9" fill="#5a1a1a" letter-spacing="1">MARK USED</text>

    <!-- Scratchpad -->
    <rect x="20" y="446" width="320" height="60" rx="6" fill="#f9efd2" stroke="#a8821e" stroke-width="1"/>
    <text x="34" y="468" font-family="Georgia, serif" font-size="11" font-style="italic" fill="#7a5d2a">Session scratchpad — what</text>
    <text x="34" y="484" font-family="Georgia, serif" font-size="11" font-style="italic" fill="#7a5d2a">happened, threads, open questions.</text>
    <text x="34" y="500" font-family="Georgia, serif" font-size="11" font-style="italic" fill="#7a5d2a">Seeds the log when you end.</text>

    <!-- Tools row -->
    <g font-family="Georgia, serif" font-size="10" letter-spacing="1" fill="#3a2d1f">
      <rect x="20"  y="524" width="60" height="26" rx="3" fill="#e0d2ac"/>
      <text x="50"  y="540" text-anchor="middle">⚂ DICE</text>
      <rect x="86"  y="524" width="66" height="26" rx="3" fill="#e0d2ac"/>
      <text x="119" y="540" text-anchor="middle">✦ INSPIRE</text>
      <rect x="158" y="524" width="70" height="26" rx="3" fill="#e0d2ac"/>
      <text x="193" y="540" text-anchor="middle">⛯ ORACLE</text>
      <rect x="234" y="524" width="72" height="26" rx="3" fill="#e0d2ac"/>
      <text x="270" y="540" text-anchor="middle">⚔ COMBAT</text>
      <rect x="312" y="524" width="28" height="26" rx="3" fill="#e0d2ac"/>
      <text x="326" y="540" text-anchor="middle">⋯</text>
    </g>

    <!-- Synced badge -->
    <rect x="270" y="600" width="74" height="22" rx="11" fill="#e6d5ad" stroke="#1f4a2a"/>
    <text x="307" y="614" text-anchor="middle" font-family="Georgia, serif" font-size="10" fill="#1f4a2a" letter-spacing="1">○ SYNCED</text>

    <text x="180" y="630" text-anchor="middle" font-family="Georgia, serif" font-size="12" font-style="italic" fill="#7a5d2a">Run · at-the-table tools</text>
  </g>
</svg>
